# xmcd
#
# Track frame offsets:
#	150
#	12225
#	29250
#	44775
#	57675
#	74962
#	89025
#	102900
#	118125
#	132075
#	151425
#
# Disc length: 2236 seconds
# Revision: 0
# Processed by: cddbd v1.5.2PL0 Copyright (c) Steve Scherf et al.
# Submitted via: dBpowerAMP V12.0
#
DISCID=a908ba0b
DTITLE=John Lang - Steel Highway
DYEAR=2013
DGENRE=
TTITLE0=T-U-L-S-A Straight Ahead
TTITLE1=Roly Poly
TTITLE2=I Wonder
TTITLE3=Bring It On Down To My House
TTITLE4=Old Fashioned Love
TTITLE5=Miles And Miles Of Texas
TTITLE6=Choo Choo Ch'Boogie
TTITLE7=Ain't Misbehavin'
TTITLE8=Take Me Back To Tulsa
TTITLE9=My Baby Thinks He's A Train
TTITLE10=Route 66
EXTD=
EXTT0=
EXTT1=
EXTT2=
EXTT3=
EXTT4=
EXTT5=
EXTT6=
EXTT7=
EXTT8=
EXTT9=
EXTT10=
PLAYORDER=
